# xmcd
#
# Track frame offsets:
#	150
#	19750
#	37065
#	54244
#	72564
#	90048
#	107886
#	119977
#	136747
#	152145
#	167169
#	185520
#	198856
#
# Disc length: 2882
#
# Revision: 1
# Processed by: cddbd v1.5.1PL0 Copyright (c) Steve Scherf et al.
# Submitted via: CDex 1.50beta10
# Normalized: r0:TDELIM( - )
#
DISCID=b10b400d
DTITLE=Various Artist - CDX 308 December 2002
DYEAR=2002
DGENRE=Country
TTITLE0=Travis Tritt - Country Ain't Country
TTITLE1=Toby Keith - Rock You Baby
TTITLE2=Radney Foster featuring Georgia Middleman - Scary Old World (radio edit)
TTITLE3=Montgomery Gentry - Speed
TTITLE4=Jo Dee Messina - Was That My Life
TTITLE5=Billy Walker - I Saw Elvis At Wal-Mart
TTITLE6=Sonny Burgess - A Woman's Touch (single)
TTITLE7=Charlie Allen - Better Said Than Done
TTITLE8=Jerry Burkhart - Cryin' Steel
TTITLE9=Wendy Manley - Indigo Blue
TTITLE10=Smokey River Boys - O Brother
TTITLE11=Winsor Harmon - Oh Megan
TTITLE12=Haley Morgan Smith - Royal Majesty
EXTD=YEAR: 2002
EXTT0=
EXTT1=
EXTT2=
EXTT3=
EXTT4=
EXTT5=
EXTT6=
EXTT7=
EXTT8=
EXTT9=
EXTT10=
EXTT11=
EXTT12=
PLAYORDER=
